<svg width="24" height="24" viewBox="0 0 24 24" fill="none" xmlns="http://www.w3.org/2000/svg">
<path d="M18.132 6.85714C19.2782 6.85714 19.6939 6.97649 20.1129 7.2006C20.532 7.42471 20.8609 7.75358 21.085 8.17263L21.1641 8.33105C21.3371 8.70701 21.4284 9.15061 21.4284 10.1536V16.2423L21.4239 16.7405C21.3906 18.4708 21.1754 19.1698 20.7988 19.874C20.3879 20.6422 19.785 21.2452 19.0167 21.656C18.2485 22.0669 17.4864 22.2857 15.385 22.2857H8.61473L8.1165 22.2812C6.38625 22.2479 5.68724 22.0327 4.98301 21.656C4.21476 21.2452 3.61183 20.6422 3.20096 19.874C2.80721 19.1378 2.58986 18.4072 2.57243 16.4981L2.57129 10.1536C2.57129 9.00733 2.69064 8.59168 2.91475 8.17263C3.13885 7.75358 3.46773 7.42471 3.88677 7.2006L4.04519 7.1215C4.3943 6.96087 4.80173 6.87061 5.66118 6.85854L18.132 6.85714ZM18.132 8.57143H5.86771L5.56538 8.57379C5.02648 8.5834 4.86145 8.62338 4.69523 8.71228C4.57493 8.77662 4.49076 8.86078 4.42642 8.98108C4.33012 9.16116 4.29122 9.33983 4.28615 9.99396L4.28557 16.2423C4.28557 17.8994 4.39668 18.4747 4.71264 19.0655C4.96373 19.535 5.32196 19.8933 5.79147 20.1444C6.38226 20.4603 6.9576 20.5714 8.61473 20.5714H15.385C17.0421 20.5714 17.6175 20.4603 18.2083 20.1444C18.6778 19.8933 19.036 19.535 19.2871 19.0655C19.603 18.4747 19.7141 17.8994 19.7141 16.2423V10.1536C19.7141 9.36731 19.677 9.17501 19.5733 8.98108C19.509 8.86078 19.4248 8.77662 19.3045 8.71228C19.1383 8.62338 18.9732 8.5834 18.4343 8.57379L18.132 8.57143ZM16.2856 10.2857C16.759 10.2857 17.1427 10.6695 17.1427 11.1429C17.1427 11.6162 16.759 12 16.2856 12C15.8122 12 15.4284 11.6162 15.4284 11.1429C15.4284 10.6695 15.8122 10.2857 16.2856 10.2857ZM7.71415 10.2857C8.18753 10.2857 8.57129 10.6695 8.57129 11.1429C8.57129 11.6162 8.18753 12 7.71415 12C7.24076 12 6.857 11.6162 6.857 11.1429C6.857 10.6695 7.24076 10.2857 7.71415 10.2857ZM11.9999 1.71429C14.8402 1.71429 17.1427 4.01682 17.1427 6.85714H15.4284C15.4284 4.9636 13.8934 3.42857 11.9999 3.42857C10.1063 3.42857 8.57129 4.9636 8.57129 6.85714H6.857C6.857 4.01682 9.15954 1.71429 11.9999 1.71429Z" fill="#43464A"/>
</svg>
