<svg width="20" height="22" viewBox="0 0 20 22" fill="none" xmlns="http://www.w3.org/2000/svg">
<path d="M16.132 5.85714C17.2782 5.85714 17.6939 5.97649 18.1129 6.2006C18.532 6.42471 18.8609 6.75358 19.085 7.17263L19.1641 7.33104C19.3371 7.707 19.4284 8.15061 19.4284 9.15357V15.2423L19.4239 15.7405C19.3906 17.4708 19.1754 18.1698 18.7988 18.874C18.3879 19.6422 17.785 20.2452 17.0167 20.656C16.2485 21.0669 15.4864 21.2857 13.385 21.2857H6.61473L6.1165 21.2812C4.38625 21.2479 3.68724 21.0327 2.98301 20.656C2.21476 20.2452 1.61183 19.6422 1.20096 18.874C0.807212 18.1377 0.589856 17.4072 0.572427 15.4981L0.571289 9.15357C0.571289 8.00733 0.690636 7.59167 0.914745 7.17263C1.13885 6.75358 1.46773 6.42471 1.88677 6.2006L2.04519 6.1215C2.3943 5.96087 2.80173 5.87061 3.66118 5.85854L16.132 5.85714ZM16.132 7.57143H3.86771L3.56538 7.57379C3.02648 7.5834 2.86145 7.62338 2.69523 7.71228C2.57493 7.77662 2.49076 7.86078 2.42642 7.98108C2.33012 8.16116 2.29122 8.33983 2.28615 8.99396L2.28557 15.2423C2.28557 16.8994 2.39668 17.4747 2.71264 18.0655C2.96373 18.535 3.32196 18.8933 3.79147 19.1444C4.38226 19.4603 4.9576 19.5714 6.61473 19.5714H13.385C15.0421 19.5714 15.6175 19.4603 16.2083 19.1444C16.6778 18.8933 17.036 18.535 17.2871 18.0655C17.603 17.4747 17.7141 16.8994 17.7141 15.2423V9.15357C17.7141 8.36731 17.677 8.17501 17.5733 7.98108C17.509 7.86078 17.4248 7.77662 17.3045 7.71228C17.1383 7.62338 16.9732 7.5834 16.4343 7.57379L16.132 7.57143ZM14.2856 9.28571C14.759 9.28571 15.1427 9.66947 15.1427 10.1429C15.1427 10.6162 14.759 11 14.2856 11C13.8122 11 13.4284 10.6162 13.4284 10.1429C13.4284 9.66947 13.8122 9.28571 14.2856 9.28571ZM5.71415 9.28571C6.18753 9.28571 6.57129 9.66947 6.57129 10.1429C6.57129 10.6162 6.18753 11 5.71415 11C5.24076 11 4.857 10.6162 4.857 10.1429C4.857 9.66947 5.24076 9.28571 5.71415 9.28571ZM9.99986 0.714285C12.8402 0.714285 15.1427 3.01682 15.1427 5.85714H13.4284C13.4284 3.96359 11.8934 2.42857 9.99986 2.42857C8.10631 2.42857 6.57129 3.96359 6.57129 5.85714H4.857C4.857 3.01682 7.15954 0.714285 9.99986 0.714285Z" fill="#E7E453"/>
</svg>
