<svg width="19" height="20" viewBox="0 0 19 20" fill="none" xmlns="http://www.w3.org/2000/svg">
<path d="M6.42247 0.57143L12.8648 0.572896C14.5432 0.590624 15.3974 0.771499 16.283 1.24516C17.1308 1.69856 17.8013 2.36903 18.2547 3.21682C18.7547 4.15169 18.9284 5.05146 18.9284 6.92261L18.927 13.3649C18.9092 15.0433 18.7284 15.8975 18.2547 16.7832C17.8013 17.631 17.1308 18.3014 16.283 18.7548C15.3482 19.2548 14.4484 19.4286 12.5772 19.4286L6.13495 19.4271C4.45651 19.4094 3.60235 19.2285 2.71668 18.7548C1.86889 18.3014 1.19842 17.631 0.745019 16.7832C0.245043 15.8483 0.0712891 14.9485 0.0712891 13.0774L0.0727553 6.63509C0.0904827 4.95665 0.271357 4.10249 0.745019 3.21682C1.19842 2.36903 1.86889 1.69856 2.71668 1.24516C3.65155 0.745184 4.55132 0.57143 6.42247 0.57143ZM12.5772 2.28572H6.42247C4.81012 2.28572 4.1777 2.40784 3.52513 2.75684C2.97609 3.05047 2.55033 3.47623 2.2567 4.02527C1.94444 4.60915 1.8138 5.1769 1.78976 6.44486L1.78557 6.92261V13.0774C1.78557 14.6897 1.9077 15.3222 2.2567 15.9747C2.55033 16.5238 2.97609 16.9495 3.52513 17.2432C4.10901 17.5554 4.67676 17.6861 5.94472 17.7101L6.42247 17.7143H12.5772C14.1896 17.7143 14.822 17.5922 15.4746 17.2432C16.0236 16.9495 16.4494 16.5238 16.743 15.9747C17.0553 15.3909 17.1859 14.8231 17.21 13.5551L17.2141 13.0774V6.92261C17.2141 5.31026 17.092 4.67785 16.743 4.02527C16.4494 3.47623 16.0236 3.05047 15.4746 2.75684C14.8907 2.44458 14.323 2.31394 13.055 2.2899L12.5772 2.28572ZM7.78557 13C8.25896 13 8.64272 13.3838 8.64272 13.8571C8.64272 14.2967 8.31183 14.659 7.88554 14.7085L7.78557 14.7143H5.21415C4.74076 14.7143 4.357 14.3305 4.357 13.8571C4.357 13.4176 4.6879 13.0553 5.11419 13.0058L5.21415 13H7.78557ZM13.7856 13C14.259 13 14.6427 13.3838 14.6427 13.8571C14.6427 14.2967 14.3118 14.659 13.8855 14.7085L13.7856 14.7143H11.2141C10.7408 14.7143 10.357 14.3305 10.357 13.8571C10.357 13.4176 10.6879 13.0553 11.1142 13.0058L11.2141 13H13.7856ZM7.78557 9.14286C8.25896 9.14286 8.64272 9.52662 8.64272 10C8.64272 10.4396 8.31183 10.8019 7.88554 10.8514L7.78557 10.8571H5.21415C4.74076 10.8571 4.357 10.4734 4.357 10C4.357 9.56043 4.6879 9.19814 5.11419 9.14863L5.21415 9.14286H7.78557ZM13.7856 9.14286C14.259 9.14286 14.6427 9.52662 14.6427 10C14.6427 10.4396 14.3118 10.8019 13.8855 10.8514L13.7856 10.8571H11.2141C10.7408 10.8571 10.357 10.4734 10.357 10C10.357 9.56043 10.6879 9.19814 11.1142 9.14863L11.2141 9.14286H13.7856ZM13.7856 5.28572C14.259 5.28572 14.6427 5.66947 14.6427 6.14286C14.6427 6.58243 14.3118 6.94472 13.8855 6.99423L13.7856 7H11.2141C10.7408 7 10.357 6.61625 10.357 6.14286C10.357 5.70329 10.6879 5.341 11.1142 5.29148L11.2141 5.28572H13.7856ZM7.78557 5.28572C8.25896 5.28572 8.64272 5.66947 8.64272 6.14286C8.64272 6.58243 8.31183 6.94472 7.88554 6.99423L7.78557 7H5.21415C4.74076 7 4.357 6.61625 4.357 6.14286C4.357 5.70329 4.6879 5.341 5.11419 5.29148L5.21415 5.28572H7.78557Z" fill="#43464A"/>
</svg>
