<svg width="25" height="26" viewBox="0 0 25 26" fill="none" xmlns="http://www.w3.org/2000/svg">
<path d="M9.74083 2.57129L16.1831 2.57276C17.8616 2.59048 18.7157 2.77136 19.6014 3.24502C20.4492 3.69842 21.1197 4.36889 21.5731 5.21668C22.073 6.15155 22.2468 7.05132 22.2468 8.92247L22.2453 15.3648C22.2276 17.0432 22.0467 17.8974 21.5731 18.783C21.1197 19.6308 20.4492 20.3013 19.6014 20.7547C18.6665 21.2547 17.7668 21.4284 15.8956 21.4284L9.45331 21.427C7.77487 21.4092 6.92071 21.2284 6.03504 20.7547C5.18725 20.3013 4.51678 19.6308 4.06338 18.783C3.5634 17.8482 3.38965 16.9484 3.38965 15.0772L3.39111 8.63495C3.40884 6.95651 3.58972 6.10235 4.06338 5.21668C4.51678 4.36889 5.18725 3.69842 6.03504 3.24502C6.96991 2.74504 7.86968 2.57129 9.74083 2.57129ZM15.8956 4.28557H9.74083C8.12848 4.28557 7.49606 4.4077 6.84349 4.7567C6.29445 5.05033 5.86869 5.47609 5.57506 6.02513C5.2628 6.60901 5.13216 7.17676 5.10812 8.44472L5.10393 8.92247V15.0772C5.10393 16.6896 5.22606 17.322 5.57506 17.9746C5.86869 18.5236 6.29445 18.9494 6.84349 19.243C7.42737 19.5553 7.99512 19.6859 9.26308 19.71L9.74083 19.7141H15.8956C17.508 19.7141 18.1404 19.592 18.7929 19.243C19.342 18.9494 19.7678 18.5236 20.0614 17.9746C20.3736 17.3907 20.5043 16.823 20.5283 15.555L20.5325 15.0772V8.92247C20.5325 7.31012 20.4104 6.6777 20.0614 6.02513C19.7678 5.47609 19.342 5.05033 18.7929 4.7567C18.2091 4.44444 17.6413 4.3138 16.3734 4.28976L15.8956 4.28557ZM11.1039 14.9999C11.5773 14.9999 11.9611 15.3836 11.9611 15.857C11.9611 16.2966 11.6302 16.6589 11.2039 16.7084L11.1039 16.7141H8.53251C8.05912 16.7141 7.67536 16.3304 7.67536 15.857C7.67536 15.4174 8.00625 15.0551 8.43254 15.0056L8.53251 14.9999H11.1039ZM17.1039 14.9999C17.5773 14.9999 17.9611 15.3836 17.9611 15.857C17.9611 16.2966 17.6302 16.6589 17.2039 16.7084L17.1039 16.7141H14.5325C14.0591 16.7141 13.6754 16.3304 13.6754 15.857C13.6754 15.4174 14.0063 15.0551 14.4325 15.0056L14.5325 14.9999H17.1039ZM11.1039 11.1427C11.5773 11.1427 11.9611 11.5265 11.9611 11.9999C11.9611 12.4394 11.6302 12.8017 11.2039 12.8512L11.1039 12.857H8.53251C8.05912 12.857 7.67536 12.4732 7.67536 11.9999C7.67536 11.5603 8.00625 11.198 8.43254 11.1485L8.53251 11.1427H11.1039ZM17.1039 11.1427C17.5773 11.1427 17.9611 11.5265 17.9611 11.9999C17.9611 12.4394 17.6302 12.8017 17.2039 12.8512L17.1039 12.857H14.5325C14.0591 12.857 13.6754 12.4732 13.6754 11.9999C13.6754 11.5603 14.0063 11.198 14.4325 11.1485L14.5325 11.1427H17.1039ZM17.1039 7.28557C17.5773 7.28557 17.9611 7.66933 17.9611 8.14272C17.9611 8.58229 17.6302 8.94458 17.2039 8.99409L17.1039 8.99986H14.5325C14.0591 8.99986 13.6754 8.6161 13.6754 8.14272C13.6754 7.70314 14.0063 7.34085 14.4325 7.29134L14.5325 7.28557H17.1039ZM11.1039 7.28557C11.5773 7.28557 11.9611 7.66933 11.9611 8.14272C11.9611 8.58229 11.6302 8.94458 11.2039 8.99409L11.1039 8.99986H8.53251C8.05912 8.99986 7.67536 8.6161 7.67536 8.14272C7.67536 7.70314 8.00625 7.34085 8.43254 7.29134L8.53251 7.28557H11.1039Z" fill="#43464A"/>
<path d="M15.4406 14.1912L24.5157 19.4239C24.8049 19.5906 24.9042 19.9603 24.7374 20.2495C24.6843 20.3416 24.6078 20.4181 24.5157 20.4713L15.4406 25.704C15.1514 25.8707 14.7817 25.7714 14.615 25.4822C14.562 25.3904 14.5342 25.2863 14.5342 25.1803V14.7149C14.5342 14.381 14.8048 14.1104 15.1386 14.1104C15.2446 14.1104 15.3487 14.1382 15.4406 14.1912Z" fill="#B34382"/>
</svg>
