<svg width="19" height="20" viewBox="0 0 19 20" fill="none" xmlns="http://www.w3.org/2000/svg">
<path d="M10.468 1.30657L18.1281 8.5836C18.6391 9.06907 18.9284 9.74302 18.9284 10.4479V17.8548C18.9284 19.0382 17.969 19.9976 16.7856 19.9976H11.6427C11.1693 19.9976 10.7856 19.6139 10.7856 19.1405V14.4261C10.7856 13.716 10.2099 13.1404 9.49986 13.1404C8.78978 13.1404 8.21415 13.716 8.21415 14.4261V19.1405C8.21415 19.6139 7.83039 19.9976 7.357 19.9976H2.21415C1.03068 19.9976 0.0712891 19.0382 0.0712891 17.8548V10.4479C0.0712891 9.74302 0.360626 9.06907 0.871648 8.5836L8.53168 1.30657C9.07423 0.791141 9.92549 0.791141 10.468 1.30657ZM9.49986 2.75133L2.05236 9.82645C1.88202 9.98828 1.78557 10.2129 1.78557 10.4479V17.8548C1.78557 18.0915 1.97745 18.2833 2.21415 18.2833H6.49986V14.4261C6.49986 12.7692 7.84301 11.4261 9.49986 11.4261C11.1567 11.4261 12.4999 12.7692 12.4999 14.4261V18.2833H16.7856C17.0223 18.2833 17.2141 18.0915 17.2141 17.8548V10.4479C17.2141 10.2129 17.1177 9.98828 16.9474 9.82645L9.49986 2.75133Z" fill="#43464A"/>
</svg>
