<svg width="23" height="15" viewBox="0 0 23 15" fill="none" xmlns="http://www.w3.org/2000/svg">
<path d="M11.4999 8.42857C14.8102 8.42857 17.0714 9.93598 17.0714 12.2857C17.0714 13.94 15.9708 14.8571 14.4999 14.8571H8.49993C7.02902 14.8571 5.9285 13.94 5.9285 12.2857C5.9285 9.93598 8.18962 8.42857 11.4999 8.42857ZM18.3571 8.42857C20.7106 8.42857 22.2142 9.84864 22.2142 11.6429C22.2142 13.0935 21.1063 14 19.8571 14H19.2142C18.7408 14 18.3571 13.6162 18.3571 13.1429C18.3571 12.6695 18.7408 12.2857 19.2142 12.2857H19.8571C20.2269 12.2857 20.4999 12.0623 20.4999 11.6429C20.4999 10.818 19.7851 10.1429 18.3571 10.1429C17.8837 10.1429 17.4999 9.7591 17.4999 9.28571C17.4999 8.81233 17.8837 8.42857 18.3571 8.42857ZM4.64279 8.42857C5.11617 8.42857 5.49993 8.81233 5.49993 9.28571C5.49993 9.7591 5.11617 10.1429 4.64279 10.1429C3.21481 10.1429 2.49993 10.818 2.49993 11.6429C2.49993 12.0623 2.77297 12.2857 3.14279 12.2857H3.78564C4.25903 12.2857 4.64279 12.6695 4.64279 13.1429C4.64279 13.6162 4.25903 14 3.78564 14H3.14279C1.89356 14 0.785645 13.0935 0.785645 11.6429C0.785645 9.84864 2.28925 8.42857 4.64279 8.42857ZM11.4999 10.1429C9.02453 10.1429 7.64279 11.064 7.64279 12.2857C7.64279 12.9171 7.9137 13.1429 8.49993 13.1429H14.4999C15.0862 13.1429 15.3571 12.9171 15.3571 12.2857C15.3571 11.064 13.9753 10.1429 11.4999 10.1429ZM16.6428 1.14286C18.2996 1.14286 19.6428 2.486 19.6428 4.14286C19.6428 5.79971 18.2996 7.14286 16.6428 7.14286C16.1694 7.14286 15.7856 6.7591 15.7856 6.28571C15.7856 5.81233 16.1694 5.42857 16.6428 5.42857L16.7666 5.42268C17.4186 5.36038 17.9285 4.81117 17.9285 4.14286C17.9285 3.43278 17.3529 2.85714 16.6428 2.85714L16.5428 2.85138C16.1165 2.80186 15.7856 2.43957 15.7856 2C15.7856 1.52661 16.1694 1.14286 16.6428 1.14286ZM6.35707 1.14286C6.83046 1.14286 7.21422 1.52661 7.21422 2C7.21422 2.43957 6.88332 2.80186 6.45703 2.85138L6.35707 2.85714C5.64699 2.85714 5.07136 3.43278 5.07136 4.14286C5.07136 4.81117 5.58126 5.36038 6.23325 5.42268L6.35707 5.42857C6.83046 5.42857 7.21422 5.81233 7.21422 6.28571C7.21422 6.7591 6.83046 7.14286 6.35707 7.14286C4.70022 7.14286 3.35707 5.79971 3.35707 4.14286C3.35707 2.486 4.70022 1.14286 6.35707 1.14286ZM11.4999 0.285713C13.3935 0.285713 14.9285 1.82074 14.9285 3.71428C14.9285 5.60783 13.3935 7.14286 11.4999 7.14286C9.60638 7.14286 8.07136 5.60783 8.07136 3.71428C8.07136 1.82074 9.60638 0.285713 11.4999 0.285713ZM11.4999 2C10.5532 2 9.78564 2.76751 9.78564 3.71428C9.78564 4.66106 10.5532 5.42857 11.4999 5.42857C12.4467 5.42857 13.2142 4.66106 13.2142 3.71428C13.2142 2.76751 12.4467 2 11.4999 2Z" fill="#E7E453"/>
</svg>
