<svg width="24" height="24" viewBox="0 0 24 24" fill="none" xmlns="http://www.w3.org/2000/svg">
<path d="M19.5997 15.8482C18.3853 15.8482 17.3073 16.4297 16.6274 17.329L7.70126 12.9241C7.77353 12.635 7.81234 12.3326 7.81234 12.0214C7.81234 11.7498 7.78223 11.4855 7.72736 11.2305L16.7225 6.79153C17.4056 7.62192 18.4408 8.15187 19.6004 8.15187C21.6573 8.15187 23.3248 6.4844 23.3248 4.4275C23.3248 2.3706 21.6573 0.703125 19.6004 0.703125C17.5435 0.703125 15.876 2.3706 15.876 4.4275C15.876 4.59077 15.8874 4.75069 15.9081 4.90793L6.75645 9.42456C6.07996 8.72933 5.13515 8.29707 4.08863 8.29707C2.03173 8.29707 0.364258 9.96455 0.364258 12.0214C0.364258 14.0784 2.03173 15.7458 4.08863 15.7458C5.093 15.7458 6.00301 15.3477 6.67281 14.702L15.8901 19.2507C15.8807 19.3571 15.8753 19.4642 15.8753 19.5726C15.8753 21.6295 17.5428 23.2969 19.5997 23.2969C21.6566 23.2969 23.3241 21.6295 23.3241 19.5726C23.3241 17.5157 21.6566 15.8482 19.5997 15.8482Z" fill="white"/>
</svg>
