<svg width="21" height="21" viewBox="0 0 21 21" fill="none" xmlns="http://www.w3.org/2000/svg">
<path d="M5.81326 11.8571C6.72644 11.8571 7.20486 11.9495 7.70319 12.216C8.16685 12.464 8.53586 12.833 8.78382 13.2967C9.05033 13.795 9.14272 14.2734 9.14272 15.1866V17.0991C9.14272 18.0123 9.05033 18.4907 8.78382 18.989C8.53586 19.4527 8.16685 19.8217 7.70319 20.0697C7.20486 20.3362 6.72644 20.4286 5.81326 20.4286H3.90075C2.98756 20.4286 2.50914 20.3362 2.01082 20.0697C1.54716 19.8217 1.17815 19.4527 0.930184 18.989C0.663676 18.4907 0.571289 18.0123 0.571289 17.0991V15.1866C0.571289 14.2734 0.663676 13.795 0.930184 13.2967C1.17815 12.833 1.54716 12.464 2.01082 12.216C2.50914 11.9495 2.98756 11.8571 3.90075 11.8571H5.81326ZM16.099 11.8571C17.0122 11.8571 17.4906 11.9495 17.9889 12.216C18.4526 12.464 18.8216 12.833 19.0695 13.2967C19.336 13.795 19.4284 14.2734 19.4284 15.1866V17.0991C19.4284 18.0123 19.336 18.4907 19.0695 18.989C18.8216 19.4527 18.4526 19.8217 17.9889 20.0697C17.4906 20.3362 17.0122 20.4286 16.099 20.4286H14.1865C13.2733 20.4286 12.7949 20.3362 12.2965 20.0697C11.8329 19.8217 11.4639 19.4527 11.2159 18.989C10.9494 18.4907 10.857 18.0123 10.857 17.0991V15.1866C10.857 14.2734 10.9494 13.795 11.2159 13.2967C11.4639 12.833 11.8329 12.464 12.2965 12.216C12.7949 11.9495 13.2733 11.8571 14.1865 11.8571H16.099ZM5.81326 13.5714H3.90075C3.24636 13.5714 3.0353 13.6122 2.81927 13.7277C2.65436 13.8159 2.53006 13.9402 2.44186 14.1051C2.32633 14.3212 2.28557 14.5322 2.28557 15.1866V17.0991C2.28557 17.7535 2.32633 17.9646 2.44186 18.1806C2.53006 18.3455 2.65436 18.4698 2.81927 18.558C3.0353 18.6735 3.24636 18.7143 3.90075 18.7143H5.81326C6.46765 18.7143 6.67871 18.6735 6.89473 18.558C7.05965 18.4698 7.18395 18.3455 7.27214 18.1806C7.38767 17.9646 7.42843 17.7535 7.42843 17.0991V15.1866C7.42843 14.5322 7.38767 14.3212 7.27214 14.1051C7.18395 13.9402 7.05965 13.8159 6.89473 13.7277C6.67871 13.6122 6.46765 13.5714 5.81326 13.5714ZM16.099 13.5714H14.1865C13.5321 13.5714 13.321 13.6122 13.105 13.7277C12.9401 13.8159 12.8158 13.9402 12.7276 14.1051C12.612 14.3212 12.5713 14.5322 12.5713 15.1866V17.0991C12.5713 17.7535 12.612 17.9646 12.7276 18.1806C12.8158 18.3455 12.9401 18.4698 13.105 18.558C13.321 18.6735 13.5321 18.7143 14.1865 18.7143H16.099C16.7534 18.7143 16.9644 18.6735 17.1804 18.558C17.3454 18.4698 17.4697 18.3455 17.5579 18.1806C17.6734 17.9646 17.7141 17.7535 17.7141 17.0991V15.1866C17.7141 14.5322 17.6734 14.3212 17.5579 14.1051C17.4697 13.9402 17.3454 13.8159 17.1804 13.7277C16.9644 13.6122 16.7534 13.5714 16.099 13.5714ZM15.9068 1.06791C16.4477 1.23183 16.8513 1.50479 17.497 2.15051L18.8493 3.50286C19.4951 4.14858 19.768 4.5522 19.932 5.09302C20.0845 5.59622 20.0845 6.11807 19.932 6.62127C19.768 7.16209 19.4951 7.56571 18.8493 8.21143L17.497 9.56378C16.8513 10.2095 16.4477 10.4825 15.9068 10.6464C15.4036 10.7989 14.8818 10.7989 14.3786 10.6464C13.8378 10.4825 13.4342 10.2095 12.7884 9.56378L11.4361 8.21143C10.7904 7.56571 10.5174 7.16209 10.3535 6.62127C10.201 6.11807 10.201 5.59622 10.3535 5.09302C10.5174 4.5522 10.7904 4.14858 11.4361 3.50286L12.7884 2.15051C13.4342 1.50479 13.8378 1.23183 14.3786 1.06791C14.8818 0.915389 15.4036 0.915389 15.9068 1.06791ZM5.81326 1.57143C6.72644 1.57143 7.20486 1.66382 7.70319 1.93032C8.16685 2.17829 8.53586 2.5473 8.78382 3.01096C9.05033 3.50928 9.14272 3.9877 9.14272 4.90089V6.8134C9.14272 7.72658 9.05033 8.205 8.78382 8.70333C8.53586 9.16699 8.16685 9.536 7.70319 9.78396C7.20486 10.0505 6.72644 10.1429 5.81326 10.1429H3.90075C2.98756 10.1429 2.50914 10.0505 2.01082 9.78396C1.54716 9.536 1.17815 9.16699 0.930184 8.70333C0.663676 8.205 0.571289 7.72658 0.571289 6.8134V4.90089C0.571289 3.9877 0.663676 3.50928 0.930184 3.01096C1.17815 2.5473 1.54716 2.17829 2.01082 1.93032C2.50914 1.66382 2.98756 1.57143 3.90075 1.57143H5.81326ZM14.8758 2.70849C14.6414 2.77955 14.4633 2.89997 14.0006 3.3627L12.6483 4.71504C12.1855 5.17777 12.0651 5.35583 11.9941 5.59028C11.9398 5.76925 11.9398 5.94504 11.9941 6.12401C12.0651 6.35846 12.1855 6.53652 12.6483 6.99924L14.0006 8.35159C14.4633 8.81431 14.6414 8.93474 14.8758 9.0058C15.0548 9.06005 15.2306 9.06005 15.4096 9.0058C15.644 8.93474 15.8221 8.81431 16.2848 8.35159L17.6372 6.99924C18.0999 6.53652 18.2203 6.35846 18.2914 6.12401C18.3456 5.94504 18.3456 5.76925 18.2914 5.59028C18.2203 5.35583 18.0999 5.17777 17.6372 4.71504L16.2848 3.3627C15.8221 2.89997 15.644 2.77955 15.4096 2.70849C15.2306 2.65424 15.0548 2.65424 14.8758 2.70849ZM5.81326 3.28571H3.90075C3.24636 3.28571 3.0353 3.32647 2.81927 3.442C2.65436 3.5302 2.53006 3.6545 2.44186 3.81941C2.32633 4.03544 2.28557 4.2465 2.28557 4.90089V6.8134C2.28557 7.46779 2.32633 7.67885 2.44186 7.89487C2.53006 8.05979 2.65436 8.18409 2.81927 8.27228C3.0353 8.38781 3.24636 8.42857 3.90075 8.42857H5.81326C6.46765 8.42857 6.67871 8.38781 6.89473 8.27228C7.05965 8.18409 7.18395 8.05979 7.27214 7.89487C7.38767 7.67885 7.42843 7.46779 7.42843 6.8134V4.90089C7.42843 4.2465 7.38767 4.03544 7.27214 3.81941C7.18395 3.6545 7.05965 3.5302 6.89473 3.442C6.67871 3.32647 6.46765 3.28571 5.81326 3.28571Z" fill="#E7E453"/>
</svg>
