<svg width="301" height="59" viewBox="0 0 301 59" fill="none" xmlns="http://www.w3.org/2000/svg">
<g clip-path="url(#clip0_112_2760)">
<path d="M23.4368 8.28748H17.192L7.59514 26.2251V8.28748H0.817139V29.3633H5.91648H7.59514H13.6288L23.4368 11.0215V29.3633H30.2148V8.28748H24.899H23.4368Z" fill="white"/>
<path d="M260.718 8.28748H254.467L244.876 26.2251V8.28748H238.098V29.3633H243.192H244.876H250.904L260.718 11.0215V29.3633H267.496V8.28748H262.18H260.718Z" fill="white"/>
<path d="M58.8423 18.8254H43.0005V8.28748H36.2224V29.3633H43.0005V23.5683H58.8423V29.3633H65.6254V8.28748H58.8423V18.8254Z" fill="white"/>
<path d="M95.0843 8.28748H81.8609L73.7421 23.4613H68.321V29.3633H106.17L109.311 23.491H103.224L95.0843 8.28748ZM86.4114 14.1894H90.5552L95.5119 23.4613H81.4544L86.4114 14.1894Z" fill="white"/>
<path d="M149.094 8.28748H143.118H141.382L130.111 29.3633H136.515H159.509V29.3395L156.363 23.4613H140.975L145.937 14.1894H159.509V14.1656L156.363 8.28748H149.094Z" fill="white"/>
<path d="M185.099 8.28748H178.322H172.272H165.494V14.1894V29.3633H172.272V14.1894H178.322V29.3633H185.099V14.1894H191.149V29.3633H197.933V14.1894V14.1656L194.786 8.28748H185.099Z" fill="white"/>
<path d="M193.705 5.99329L190.559 0.115112H165.585V6.01706H193.705V5.99329Z" fill="white"/>
<path d="M226.592 8.28748H211.684H204.906V14.1894V29.3633H211.684V14.1894H223.435L220.954 18.8254H216.081L212.935 24.7035V24.7273H224.813H225.509L234.304 8.28748H227.637H226.592Z" fill="white"/>
<path d="M126.611 8.28748L120.978 18.8254H118.27L112.632 8.28748H104.92L113.097 23.5683H113.641H118.444L115.346 29.3633H123.053L134.323 8.28748H126.611Z" fill="white"/>
<path d="M293.495 8.28748H278.588H277.543H270.875L279.67 24.7273L277.189 29.3633H284.901L287.382 24.7273H292.244V24.7035L289.098 18.8254H284.226L281.745 14.1894H293.495V29.3633H300.278V14.1894V8.28748H293.495Z" fill="white"/>
</g>
<path d="M25.1276 54.4643H24.5076V47.4643H25.2376V53.2243L29.5876 47.4643H30.2376V54.4643H29.5076V48.6843L25.1276 54.4643ZM32.9429 54.4643H32.2029V47.4643H32.9429V50.3743H37.1029V47.4643H37.8429V54.4643H37.1029V51.0443H32.9429V54.4643ZM43.1103 54.5843C42.0903 54.5843 41.2336 54.2443 40.5403 53.5643C39.8603 52.8843 39.5203 52.0176 39.5203 50.9643C39.5203 49.9176 39.8603 49.0543 40.5403 48.3743C41.227 47.6876 42.0836 47.3443 43.1103 47.3443C43.8703 47.3443 44.5236 47.5176 45.0703 47.8643V48.6243C44.457 48.231 43.807 48.0343 43.1203 48.0343C42.3203 48.0343 41.6436 48.3143 41.0903 48.8743C40.5436 49.421 40.2703 50.1176 40.2703 50.9643C40.2703 51.8176 40.5436 52.5176 41.0903 53.0643C41.6436 53.6176 42.327 53.8943 43.1403 53.8943C43.9536 53.8943 44.647 53.661 45.2203 53.1943V53.9643C44.647 54.3776 43.9436 54.5843 43.1103 54.5843ZM49.2346 54.4643H48.4946V48.1343H46.0846V47.4643H51.6746V48.1343H49.2346V54.4643ZM53.6334 54.4643H53.0134V47.4643H53.7434V53.2243L58.0934 47.4643H58.7434V54.4643H58.0134V48.6843L53.6334 54.4643ZM63.2288 54.4643H62.4888V48.1343H60.0788V47.4643H65.6688V48.1343H63.2288V54.4643ZM67.7876 54.5843C67.4276 54.5843 67.1342 54.5376 66.9076 54.4443V53.7543C67.1476 53.8476 67.4009 53.8943 67.6676 53.8943C68.0209 53.8943 68.3076 53.7476 68.5276 53.4543C68.6342 53.3143 68.7276 53.1743 68.8076 53.0343C68.8542 52.9543 68.9476 52.7743 69.0876 52.4943L66.2676 47.4643H67.0876L69.4476 51.7343L71.4176 47.4643H72.2076L69.6276 52.9843C69.3609 53.551 69.0776 53.961 68.7776 54.2143C68.4842 54.461 68.1542 54.5843 67.7876 54.5843ZM75.9924 54.4643H75.2524V48.1343H72.8424V47.4643H78.4324V48.1343H75.9924V54.4643ZM82.6499 54.4643H81.9099V47.4643H84.8499C85.5433 47.4643 86.0899 47.641 86.4899 47.9943C86.8899 48.3476 87.0899 48.8176 87.0899 49.4043C87.0899 50.0043 86.8899 50.4843 86.4899 50.8443C86.0899 51.1976 85.5433 51.3743 84.8499 51.3743H82.6499V54.4643ZM82.6499 48.1343V50.7043H84.7999C85.2933 50.7043 85.6766 50.5943 85.9499 50.3743C86.2233 50.1476 86.3599 49.831 86.3599 49.4243C86.3599 49.011 86.2233 48.6943 85.9499 48.4743C85.6833 48.2476 85.2999 48.1343 84.7999 48.1343H82.6499ZM87.9079 54.4643H87.1379L90.2579 47.4243H90.9479L94.0779 54.4643H93.2979L92.4279 52.5343H88.7579L87.9079 54.4643ZM90.5979 48.3543L89.0079 51.8843H92.1879L90.5979 48.3543ZM97.1088 54.5843C96.1755 54.5843 95.3888 54.4043 94.7488 54.0443V53.2843C95.4355 53.691 96.1855 53.8943 96.9988 53.8943C97.6655 53.8943 98.1922 53.761 98.5788 53.4943C98.9722 53.221 99.1688 52.8576 99.1688 52.4043C99.1688 51.9976 98.9888 51.6643 98.6288 51.4043C98.2688 51.1443 97.7988 51.0143 97.2188 51.0143H96.3588V50.3443H97.2988C97.7922 50.3443 98.1755 50.2443 98.4488 50.0443C98.7288 49.8376 98.8688 49.551 98.8688 49.1843C98.8688 48.8243 98.7122 48.5443 98.3988 48.3443C98.0855 48.1376 97.6722 48.0343 97.1588 48.0343C96.4722 48.0343 95.7788 48.1976 95.0788 48.5243V47.8243C95.7655 47.5043 96.4688 47.3443 97.1888 47.3443C97.8955 47.3443 98.4722 47.5076 98.9188 47.8343C99.3722 48.1676 99.5988 48.6043 99.5988 49.1443C99.5988 49.5576 99.4788 49.891 99.2388 50.1443C99.0055 50.391 98.7455 50.5576 98.4588 50.6443C98.8455 50.7643 99.1855 50.9743 99.4788 51.2743C99.7788 51.561 99.9288 51.9543 99.9288 52.4543C99.9288 53.0743 99.6755 53.5843 99.1688 53.9843C98.6555 54.3843 97.9688 54.5843 97.1088 54.5843ZM104.889 54.4643H101.549V47.4643H104.579C105.199 47.4643 105.689 47.6176 106.049 47.9243C106.409 48.2243 106.589 48.6376 106.589 49.1643C106.589 49.5243 106.505 49.8343 106.339 50.0943C106.179 50.3543 105.955 50.5376 105.669 50.6443C106.135 50.7176 106.505 50.921 106.779 51.2543C107.052 51.5876 107.189 52.0076 107.189 52.5143C107.189 53.1076 106.982 53.581 106.569 53.9343C106.155 54.2876 105.595 54.4643 104.889 54.4643ZM102.289 51.0743V53.7943H104.759C105.279 53.7943 105.682 53.6743 105.969 53.4343C106.255 53.1943 106.399 52.8576 106.399 52.4243C106.399 51.9976 106.255 51.6676 105.969 51.4343C105.682 51.1943 105.279 51.0743 104.759 51.0743H102.289ZM102.289 48.1343V50.4243H104.459C104.905 50.4243 105.249 50.3276 105.489 50.1343C105.735 49.941 105.859 49.661 105.859 49.2943C105.859 48.921 105.735 48.6343 105.489 48.4343C105.249 48.2343 104.905 48.1343 104.459 48.1343H102.289ZM109.424 54.4643H108.804V47.4643H109.534V53.2243L113.884 47.4643H114.534V54.4643H113.804V48.6843L109.424 54.4643ZM119.02 54.4643H118.28V48.1343H115.87V47.4643H121.46V48.1343H119.02V54.4643ZM123.419 54.4643H122.799V47.4643H123.529V53.2243L127.879 47.4643H128.529V54.4643H127.799V48.6843L123.419 54.4643ZM130.794 54.4643H129.934L132.194 51.2443C131.674 51.1576 131.267 50.9476 130.974 50.6143C130.687 50.281 130.544 49.8643 130.544 49.3643C130.544 48.7843 130.741 48.3243 131.134 47.9843C131.527 47.6376 132.064 47.4643 132.744 47.4643H135.884V54.4643H135.144V51.3143H133.004L130.794 54.4643ZM132.794 50.6443H135.144V48.1343H132.794C132.314 48.1343 131.941 48.2443 131.674 48.4643C131.407 48.6843 131.274 48.9943 131.274 49.3943C131.274 49.7943 131.407 50.1043 131.674 50.3243C131.941 50.5376 132.314 50.6443 132.794 50.6443ZM140.494 47.4643H141.234V50.5043L144.474 47.4643H145.454L142.014 50.6643L145.984 54.4643H144.944L141.234 50.9043V54.4643H140.494V47.4643ZM147.845 54.4643H147.105V47.4643H150.045C150.739 47.4643 151.285 47.641 151.685 47.9943C152.085 48.3476 152.285 48.8176 152.285 49.4043C152.285 50.0043 152.085 50.4843 151.685 50.8443C151.285 51.1976 150.739 51.3743 150.045 51.3743H147.845V54.4643ZM147.845 48.1343V50.7043H149.995C150.489 50.7043 150.872 50.5943 151.145 50.3743C151.419 50.1476 151.555 49.831 151.555 49.4243C151.555 49.011 151.419 48.6943 151.145 48.4743C150.879 48.2476 150.495 48.1343 149.995 48.1343H147.845ZM158.706 54.4643H153.756V47.4643H158.556V48.1343H154.496V50.3743H157.826V51.0443H154.496V53.7943H158.706V54.4643ZM160.232 54.4643H159.462L162.582 47.4243H163.272L166.402 54.4643H165.622L164.752 52.5343H161.082L160.232 54.4643ZM162.922 48.3543L161.332 51.8843H164.512L162.922 48.3543ZM169.205 54.4643H168.465V48.1343H166.055V47.4643H171.645V48.1343H169.205V54.4643ZM173.604 54.4643H172.984V47.4643H173.714V53.2243L178.064 47.4643H178.714V54.4643H177.984V48.6843L173.604 54.4643ZM184.019 54.4643H180.679V47.4643H183.709C184.329 47.4643 184.819 47.6176 185.179 47.9243C185.539 48.2243 185.719 48.6376 185.719 49.1643C185.719 49.5243 185.636 49.8343 185.469 50.0943C185.309 50.3543 185.086 50.5376 184.799 50.6443C185.266 50.7176 185.636 50.921 185.909 51.2543C186.183 51.5876 186.319 52.0076 186.319 52.5143C186.319 53.1076 186.113 53.581 185.699 53.9343C185.286 54.2876 184.726 54.4643 184.019 54.4643ZM181.419 51.0743V53.7943H183.889C184.409 53.7943 184.813 53.6743 185.099 53.4343C185.386 53.1943 185.529 52.8576 185.529 52.4243C185.529 51.9976 185.386 51.6676 185.099 51.4343C184.813 51.1943 184.409 51.0743 183.889 51.0743H181.419ZM181.419 48.1343V50.4243H183.589C184.036 50.4243 184.379 50.3276 184.619 50.1343C184.866 49.941 184.989 49.661 184.989 49.2943C184.989 48.921 184.866 48.6343 184.619 48.4343C184.379 48.2343 184.036 48.1343 183.589 48.1343H181.419ZM188.675 54.4643H187.935V47.4643H188.675V50.3743H192.835V47.4643H193.575V54.4643H192.835V51.0443H188.675V54.4643ZM202.443 54.4643H201.703V47.4643H202.443V54.4643ZM198.123 54.4643H195.543V47.4643H196.283V50.0743H198.123C198.916 50.0743 199.529 50.2776 199.963 50.6843C200.409 51.091 200.633 51.621 200.633 52.2743C200.633 52.941 200.409 53.4743 199.963 53.8743C199.516 54.2676 198.903 54.4643 198.123 54.4643ZM196.283 50.7443V53.7943H198.073C198.646 53.7943 199.093 53.6643 199.413 53.4043C199.733 53.1376 199.893 52.761 199.893 52.2743C199.893 51.7876 199.733 51.411 199.413 51.1443C199.099 50.8776 198.653 50.7443 198.073 50.7443H196.283ZM204.58 54.4643H203.71L206.52 50.6643L204.17 47.4643H205.04L206.97 50.0643L208.91 47.4643H209.76L207.41 50.6543L210.22 54.4643H209.34L206.96 51.2543L204.58 54.4643ZM214.747 54.4643H214.127V47.4643H214.857V53.2243L219.207 47.4643H219.857V54.4643H219.127V48.6843L214.747 54.4643ZM222.562 54.4643H221.822V47.4643H222.562V50.3743H226.722V47.4643H227.462V54.4643H226.722V51.0443H222.562V54.4643ZM229.299 56.0243H228.609V53.7943H229.269C229.703 53.1876 230.013 52.4776 230.199 51.6643C230.393 50.8376 230.489 49.7176 230.489 48.3043V47.4643H234.809V53.7943H235.869V56.0243H235.179V54.4643H229.299V56.0243ZM230.099 53.7943H234.069V48.1343H231.219V48.6043C231.219 50.991 230.846 52.721 230.099 53.7943ZM237.973 54.5843C237.613 54.5843 237.32 54.5376 237.093 54.4443V53.7543C237.333 53.8476 237.586 53.8943 237.853 53.8943C238.206 53.8943 238.493 53.7476 238.713 53.4543C238.82 53.3143 238.913 53.1743 238.993 53.0343C239.04 52.9543 239.133 52.7743 239.273 52.4943L236.453 47.4643H237.273L239.633 51.7343L241.603 47.4643H242.393L239.813 52.9843C239.546 53.551 239.263 53.961 238.963 54.2143C238.67 54.461 238.34 54.5843 237.973 54.5843ZM246.528 54.5843C245.508 54.5843 244.652 54.2443 243.958 53.5643C243.278 52.8843 242.938 52.0176 242.938 50.9643C242.938 49.9176 243.278 49.0543 243.958 48.3743C244.645 47.6876 245.502 47.3443 246.528 47.3443C247.288 47.3443 247.942 47.5176 248.488 47.8643V48.6243C247.875 48.231 247.225 48.0343 246.538 48.0343C245.738 48.0343 245.062 48.3143 244.508 48.8743C243.962 49.421 243.688 50.1176 243.688 50.9643C243.688 51.8176 243.962 52.5176 244.508 53.0643C245.062 53.6176 245.745 53.8943 246.558 53.8943C247.372 53.8943 248.065 53.661 248.638 53.1943V53.9643C248.065 54.3776 247.362 54.5843 246.528 54.5843ZM252.653 54.4643H251.913V48.1343H249.503V47.4643H255.093V48.1343H252.653V54.4643ZM257.171 54.4643H256.431V47.4643H259.371C260.065 47.4643 260.611 47.641 261.011 47.9943C261.411 48.3476 261.611 48.8176 261.611 49.4043C261.611 50.0043 261.411 50.4843 261.011 50.8443C260.611 51.1976 260.065 51.3743 259.371 51.3743H257.171V54.4643ZM257.171 48.1343V50.7043H259.321C259.815 50.7043 260.198 50.5943 260.471 50.3743C260.745 50.1476 260.881 49.831 260.881 49.4243C260.881 49.011 260.745 48.6943 260.471 48.4743C260.205 48.2476 259.821 48.1343 259.321 48.1343H257.171ZM263.702 54.4643H263.082V47.4643H263.812V53.2243L268.162 47.4643H268.812V54.4643H268.082V48.6843L263.702 54.4643ZM271.397 54.4643H270.777V47.4643H271.507V53.2243L275.857 47.4643H276.507V54.4643H275.777V48.6843L271.397 54.4643ZM273.637 46.9743C273.137 46.9743 272.734 46.8376 272.427 46.5643C272.127 46.2843 271.974 45.9143 271.967 45.4543H272.607C272.607 45.7343 272.7 45.961 272.887 46.1343C273.074 46.3076 273.324 46.3943 273.637 46.3943C273.937 46.3943 274.177 46.3076 274.357 46.1343C274.544 45.961 274.64 45.7343 274.647 45.4543H275.287C275.274 45.9143 275.114 46.2843 274.807 46.5643C274.494 46.8376 274.104 46.9743 273.637 46.9743Z" fill="white"/>
<defs>
<clipPath id="clip0_112_2760">
<rect width="300" height="29.4643" fill="white" transform="translate(0.5)"/>
</clipPath>
</defs>
</svg>
